<svg width="100" height="100" viewBox="0 0 100 100" xmlns="http://www.w3.org/2000/svg">
  <defs>
    <linearGradient id="sparkleGradient" x1="0%" y1="0%" x2="100%" y2="100%">
      <stop offset="0%" style="stop-color:#FFDAED;stop-opacity:1" />
      <stop offset="100%" style="stop-color:#FFB6D9;stop-opacity:1" />
    </linearGradient>
    <filter id="sparkleGlow">
      <feGaussianBlur stdDeviation="3" result="coloredBlur"/>
      <feMerge>
        <feMergeNode in="coloredBlur"/>
        <feMergeNode in="SourceGraphic"/>
      </feMerge>
    </filter>
  </defs>
  
  <!-- Centro estrela principal -->
  <g transform="translate(50, 50)">
    <path d="M 0,-20 L 5,-5 L 20,0 L 5,5 L 0,20 L -5,5 L -20,0 L -5,-5 Z" 
          fill="url(#sparkleGradient)" 
          filter="url(#sparkleGlow)"
          stroke="#FF8AC9" 
          stroke-width="1.5">
      <animateTransform attributeName="transform" type="rotate" from="0" to="360" dur="3s" repeatCount="indefinite"/>
      <animate attributeName="opacity" values="1;0.7;1" dur="2s" repeatCount="indefinite"/>
    </path>
  </g>
  
  <!-- Estrelas menores -->
  <g transform="translate(25, 25)">
    <path d="M 0,-8 L 2,-2 L 8,0 L 2,2 L 0,8 L -2,2 L -8,0 L -2,-2 Z" 
          fill="#FFDAED" 
          filter="url(#sparkleGlow)">
      <animateTransform attributeName="transform" type="rotate" from="0" to="360" dur="4s" repeatCount="indefinite"/>
      <animate attributeName="opacity" values="0.5;1;0.5" dur="1.5s" repeatCount="indefinite"/>
    </path>
  </g>
  
  <g transform="translate(75, 30)">
    <path d="M 0,-6 L 1.5,-1.5 L 6,0 L 1.5,1.5 L 0,6 L -1.5,1.5 L -6,0 L -1.5,-1.5 Z" 
          fill="#FFC8E3" 
          filter="url(#sparkleGlow)">
      <animateTransform attributeName="transform" type="rotate" from="360" to="0" dur="3.5s" repeatCount="indefinite"/>
      <animate attributeName="opacity" values="0.6;1;0.6" dur="2s" begin="0.5s" repeatCount="indefinite"/>
    </path>
  </g>
  
  <g transform="translate(30, 75)">
    <path d="M 0,-7 L 2,-2 L 7,0 L 2,2 L 0,7 L -2,2 L -7,0 L -2,-2 Z" 
          fill="#FF8AC9" 
          filter="url(#sparkleGlow)">
      <animateTransform attributeName="transform" type="rotate" from="0" to="360" dur="3.2s" repeatCount="indefinite"/>
      <animate attributeName="opacity" values="0.7;1;0.7" dur="1.8s" begin="0.3s" repeatCount="indefinite"/>
    </path>
  </g>
  
  <g transform="translate(70, 70)">
    <path d="M 0,-5 L 1.5,-1.5 L 5,0 L 1.5,1.5 L 0,5 L -1.5,1.5 L -5,0 L -1.5,-1.5 Z" 
          fill="#FFB6D9" 
          filter="url(#sparkleGlow)">
      <animateTransform attributeName="transform" type="rotate" from="360" to="0" dur="4s" repeatCount="indefinite"/>
      <animate attributeName="opacity" values="0.5;1;0.5" dur="2.2s" repeatCount="indefinite"/>
    </path>
  </g>
</svg>
