<svg width="24" height="24" viewBox="0 0 24 24" fill="none" xmlns="http://www.w3.org/2000/svg">
  <defs>
    <linearGradient id="pinkGrad6" x1="0%" y1="0%" x2="100%" y2="100%">
      <stop offset="0%" style="stop-color:#e0d4ff;stop-opacity:1" />
      <stop offset="50%" style="stop-color:#ec4899;stop-opacity:1" />
      <stop offset="100%" style="stop-color:#ec4899;stop-opacity:1" />
    </linearGradient>
    <filter id="glow6">
      <feGaussianBlur stdDeviation="1.5" result="coloredBlur"/>
      <feMerge>
        <feMergeNode in="coloredBlur"/>
        <feMergeNode in="SourceGraphic"/>
      </feMerge>
    </filter>
  </defs>
  <path d="M12 2L13.5 8.5L20 10L13.5 11.5L12 18L10.5 11.5L4 10L10.5 8.5L12 2Z" fill="url(#pinkGrad6)" filter="url(#glow6)">
    <animateTransform attributeName="transform" type="rotate" values="0 12 10; 360 12 10" dur="4s" repeatCount="indefinite"/>
    <animate attributeName="opacity" values="1;0.6;1" dur="2s" repeatCount="indefinite"/>
  </path>
  <path d="M19 15L19.8 17.2L22 18L19.8 18.8L19 21L18.2 18.8L16 18L18.2 17.2L19 15Z" fill="url(#pinkGrad6)" filter="url(#glow6)">
    <animate attributeName="opacity" values="0.8;1;0.8" dur="1.5s" begin="0.5s" repeatCount="indefinite"/>
  </path>
  <path d="M6 4L6.5 5.5L8 6L6.5 6.5L6 8L5.5 6.5L4 6L5.5 5.5L6 4Z" fill="url(#pinkGrad6)" filter="url(#glow6)">
    <animate attributeName="opacity" values="0.6;1;0.6" dur="1s" repeatCount="indefinite"/>
  </path>
</svg>
