<svg width="80" height="80" viewBox="0 0 80 80" xmlns="http://www.w3.org/2000/svg">
  <defs>
    <filter id="neonGlow">
      <feGaussianBlur stdDeviation="3" result="coloredBlur"/>
      <feMerge>
        <feMergeNode in="coloredBlur"/>
        <feMergeNode in="SourceGraphic"/>
      </feMerge>
    </filter>
  </defs>
  
  <!-- Neon Border -->
  <rect x="3" y="3" width="74" height="74" rx="15" fill="none" stroke="#a855f7" stroke-width="3" opacity="0.6" filter="url(#neonGlow)"/>
  
  <!-- Background -->
  <rect x="8" y="8" width="64" height="64" rx="12" fill="#1a1f2e"/>
  
  <!-- Docker Containers - Original Blue -->
  <rect x="26" y="36" width="5" height="5" fill="#2496ED"/>
  <rect x="33" y="36" width="5" height="5" fill="#2496ED"/>
  <rect x="40" y="36" width="5" height="5" fill="#2496ED"/>
  <rect x="47" y="36" width="5" height="5" fill="#2496ED"/>
  
  <rect x="26" y="43" width="5" height="5" fill="#2496ED"/>
  <rect x="33" y="43" width="5" height="5" fill="#2496ED"/>
  <rect x="40" y="43" width="5" height="5" fill="#2496ED"/>
  <rect x="47" y="43" width="5" height="5" fill="#2496ED"/>
  
  <rect x="33" y="29" width="5" height="5" fill="#2496ED"/>
  <rect x="40" y="29" width="5" height="5" fill="#2496ED"/>
  
  <!-- Whale tail -->
  <path d="M22 40 C22 34 27 30 35 30 L48 30 C54 30 58 34 58 40" 
        stroke="#2496ED" stroke-width="2" fill="none"/>
</svg>
