<svg width="80" height="80" viewBox="0 0 80 80" xmlns="http://www.w3.org/2000/svg">
  <defs>
    <filter id="neonGlow">
      <feGaussianBlur stdDeviation="3" result="coloredBlur"/>
      <feMerge>
        <feMergeNode in="coloredBlur"/>
        <feMergeNode in="SourceGraphic"/>
      </feMerge>
    </filter>
  </defs>
  
  <!-- Neon Border -->
  <rect x="3" y="3" width="74" height="74" rx="15" fill="none" stroke="#a855f7" stroke-width="3" opacity="0.6" filter="url(#neonGlow)"/>
  
  <!-- Background -->
  <rect x="8" y="8" width="64" height="64" rx="12" fill="#1a1f2e"/>
  
  <!-- GitHub Octocat - White/Gray -->
  <path d="M40 26c-7.7 0-14 6.3-14 14 0 6.2 4 11.4 9.6 13.3 0.7 0.1 1-0.3 1-0.7v-2.4c-3.9 0.8-4.7-1.9-4.7-1.9-0.6-1.6-1.5-2-1.5-2-1.2-0.8 0.1-0.8 0.1-0.8 1.4 0.1 2.1 1.4 2.1 1.4 1.2 2.1 3.2 1.5 4 1.1 0.1-0.9 0.5-1.5 0.9-1.8-3-0.3-6.2-1.5-6.2-6.7 0-1.5 0.5-2.7 1.4-3.6-0.1-0.3-0.6-1.7 0.1-3.5 0 0 1.1-0.4 3.7 1.4 1.1-0.3 2.2-0.4 3.3-0.4s2.3 0.1 3.3 0.4c2.6-1.8 3.7-1.4 3.7-1.4 0.7 1.8 0.3 3.2 0.1 3.5 0.9 1 1.4 2.2 1.4 3.6 0 5.2-3.2 6.4-6.2 6.7 0.5 0.4 0.9 1.2 0.9 2.5v3.7c0 0.4 0.3 0.8 1 0.7 5.6-1.9 9.6-7.1 9.6-13.3 0-7.7-6.3-14-14-14z" 
        fill="#FFFFFF"/>
</svg>
