<svg width="80" height="80" viewBox="0 0 80 80" xmlns="http://www.w3.org/2000/svg">
  <defs>
    <linearGradient id="rubyRed" x1="0%" y1="0%" x2="100%" y2="100%">
      <stop offset="0%" style="stop-color:#CC342D;stop-opacity:1" />
      <stop offset="100%" style="stop-color:#9B1B11;stop-opacity:1" />
    </linearGradient>
    <filter id="neonGlow">
      <feGaussianBlur stdDeviation="3" result="coloredBlur"/>
      <feMerge>
        <feMergeNode in="coloredBlur"/>
        <feMergeNode in="SourceGraphic"/>
      </feMerge>
    </filter>
  </defs>
  
  <!-- Neon Border -->
  <rect x="3" y="3" width="74" height="74" rx="15" fill="none" stroke="#a855f7" stroke-width="3" opacity="0.6" filter="url(#neonGlow)"/>
  
  <!-- Background -->
  <rect x="8" y="8" width="64" height="64" rx="12" fill="#1a1f2e"/>
  
  <!-- Ruby Gem - Original Red -->
  <path d="M40 24 L29 34 L24 44 L29 54 L40 59 L51 54 L56 44 L51 34 Z" 
        fill="url(#rubyRed)"/>
  <path d="M40 24 L29 34 M40 24 L51 34 M29 34 L24 44 M51 34 L56 44 M24 44 L29 54 M56 44 L51 54 M29 54 L40 59 M51 54 L40 59 M29 34 L40 44 M51 34 L40 44 M40 44 L29 54 M40 44 L51 54" 
        stroke="#FFFFFF" stroke-width="1.5" opacity="0.3"/>
  <circle cx="40" cy="41" r="2" fill="#FFFFFF" opacity="0.8"/>
</svg>
